<svg width="16" height="9" viewBox="0 0 16 9" fill="none" xmlns="http://www.w3.org/2000/svg">
<path d="M9.28912 8.75785C9.09634 8.59641 9.0038 8.40134 9.01151 8.17264C9.01987 7.94394 9.12044 7.74888 9.31322 7.58744L12.0363 5.30717H1.28862C1.01551 5.30717 0.786423 5.22969 0.601351 5.07471C0.416922 4.92027 0.324707 4.7287 0.324707 4.5C0.324707 4.2713 0.416922 4.07946 0.601351 3.92448C0.786423 3.77004 1.01551 3.69282 1.28862 3.69282H12.0363L9.28912 1.39238C9.09634 1.23094 8.99995 1.0391 8.99995 0.816861C8.99995 0.595157 9.09634 0.403587 9.28912 0.242152C9.48191 0.0807173 9.711 0 9.97639 0C10.2411 0 10.4699 0.0807173 10.6627 0.242152L15.0726 3.93498C15.169 4.0157 15.2374 4.10314 15.2779 4.19731C15.3178 4.29148 15.3377 4.39238 15.3377 4.5C15.3377 4.60762 15.3178 4.70852 15.2779 4.80269C15.2374 4.89686 15.169 4.9843 15.0726 5.06502L10.6386 8.77803C10.4619 8.92601 10.2411 9 9.97639 9C9.711 9 9.48191 8.91928 9.28912 8.75785Z" fill="#30C2E3"/>
</svg>
